<svg width="122" height="122" viewbox="0 0 122 122" xmlns="http://www.w3.org/2000/svg" xmlns:xlink="http://www.w3.org/1999/xlink"><ellipse fill="none" stroke="#ff0000" stroke-width="2.3" cx="61" cy="61" rx="19" ry="30"/><svg x="49" y="33"><path fill="red" stroke="none" transform="scale(1, 1)" d="M13.40 20.15C13.50 19.40 12.98 18.80 11.80 18.80C6.65 18.80 3.63 20.73 3.63 23.38C3.63 26.05 6.40 27.40 11.80 27.40C17.20 27.40 20.08 26.02 19.80 23.55C19.55 21.35 16.45 19.77 13.40 20.15ZM8.70 5.47C8.55 5.70 8.45 5.95 8.40 6.27C8.33 6.65 8.45 6.90 8.83 7.05C9.53 7.32 9.65 7.65 9.40 8.05C8.13 10.22 5.88 12.20 2.85 13.42C2.18 13.70 2.27 14.67 3.13 14.57C6.50 14.22 9.35 13.15 11.38 11.55C13.53 11.90 15.20 12.75 16.60 13.92C17.70 14.82 19.30 14.53 19.73 13.35C20.10 12.32 19.70 11.25 18.23 10.70C16.70 10.15 14.95 9.88 12.93 10C13.50 9.30 13.93 8.52 14.23 7.70C14.35 7.35 14.33 6.97 13.95 6.75C12.55 5.90 11.08 5.45 9.53 5.20C9.03 5.13 8.85 5.22 8.70 5.47ZM0.95 15.03C0.70 15.20 0.53 15.45 0.43 15.75C0.30 16.10 0.48 16.48 0.73 16.80C1.15 17.35 1.68 17.93 2.35 18.45C2.78 18.80 3.28 19.13 3.90 19.13C4.65 19.13 5.43 18.80 6.75 18.45C8.22 18.05 10.20 18 12 17.93C13.93 17.85 17.10 17.90 18.35 18.50C20 19.30 22.43 19.15 22.58 17.02C22.75 14.72 20.48 14.28 18.73 14.95C16.93 15.65 13.68 15.70 11.80 15.75C9.63 15.80 7.30 15.80 5.18 15.57C4.15 15.47 3.23 15.35 2.27 15.07C1.55 14.85 1.18 14.85 0.95 15.03ZM8.03 23.38C8.03 22.43 9.18 21.65 11.80 21.65C14.05 21.65 15.58 22.43 15.58 23.38C15.58 24.35 14.43 25.05 11.80 25.05C9.18 25.05 8.03 24.35 8.03 23.38Z"/></svg><svg x="49" y="55"><path fill="red" stroke="none" transform="scale(1, 1)" d="M7.93 9.30C9.33 9.30 10.58 10.57 10.58 12.65C10.58 14.78 9.33 15.97 7.93 15.97C6.53 15.97 5.28 14.78 5.28 12.65C5.28 10.57 6.53 9.30 7.93 9.30ZM9.65 8C9.75 6.85 9.20 6.25 7.85 6.35C3.58 6.68 1.65 9.80 1.65 12.72C1.65 15.65 3.43 18.38 7.93 18.38C12.40 18.38 14.25 15.28 14.03 12.75C13.73 9.22 11.43 7.92 9.65 8ZM20.75 9.63C20.75 8.85 21.03 7.95 20.85 7.22C20.68 6.50 20.10 5.93 19.18 5.50C18.28 5.10 17.13 4.82 16 4.68C15.40 4.60 15.20 4.70 15 4.97C14.80 5.25 14.70 5.55 14.63 5.88C14.55 6.25 14.70 6.63 15.10 6.80C16.32 7.27 16.93 7.95 16.93 9.22L16.93 20.60C16.93 21.57 17.38 21.88 18.32 21.88C19.68 21.88 20.75 21 20.75 19.68ZM4.95 23.35C4.95 23.85 4.83 24.15 4.60 24.48C4.40 24.75 4.38 25.05 4.55 25.40C4.75 25.80 5.15 26.38 5.40 26.63C5.80 27.02 6.18 27.15 6.83 27.15L14.15 27.15C17.23 27.15 19.60 26.23 21.05 23.82C21.40 23.25 20.93 22.73 20.40 22.98C18.50 23.88 17.03 24.20 13.58 24.20L9.15 24.20L9.15 22.02C9.15 21.13 8.93 20.75 8.33 20.43C7.55 20 6.30 19.60 5.28 19.43C4.63 19.30 4.40 19.32 4.17 19.65C4 19.88 3.88 20.13 3.78 20.43C3.65 20.82 3.73 21.07 4.17 21.32C4.75 21.63 4.95 21.90 4.95 22.55Z"/></svg></svg>