<svg width="122" height="122" viewbox="0 0 122 122" xmlns="http://www.w3.org/2000/svg" xmlns:xlink="http://www.w3.org/1999/xlink"><ellipse fill="none" stroke="#ff0000" stroke-width="2.3" cx="61" cy="61" rx="19" ry="30"/><svg x="49" y="33"><path fill="red" stroke="none" transform="scale(1, 1)" d="M5.63 9.27C5.63 8.63 5.48 8.32 5 8.10C4.10 7.63 3.10 7.27 1.98 7.07C1.48 6.97 1.28 7.10 1.18 7.32C1.03 7.60 0.88 7.92 0.83 8.17C0.75 8.50 0.75 8.75 1.18 8.97C1.80 9.30 2 9.60 2.10 10.50C2.23 11.52 2.23 13.30 2.18 14.28C2.15 14.78 2.02 15.13 1.68 15.60C1.45 15.90 1.38 16.25 1.55 16.60C1.88 17.27 2.25 17.75 2.78 18.15C3.18 18.45 3.38 18.50 3.95 18.43C5.75 18.23 8.03 17.75 9.40 17.18L9.40 17.35C9.40 18.20 9.78 18.50 10.45 18.50C11.93 18.50 13.15 17.32 13.08 16.15C12.95 14.38 12.95 10.47 13.10 8.70C13.18 7.95 12.95 7.43 12.48 7.20C11.48 6.72 10.50 6.38 9.40 6.18C8.85 6.07 8.70 6.20 8.55 6.45C8.40 6.70 8.30 6.95 8.25 7.22C8.20 7.52 8.20 7.75 8.63 7.92C9.18 8.15 9.40 8.47 9.40 9.07L9.40 10.38C8 10.42 6.93 10.45 5.63 10.42ZM19.10 9.63C19.10 8.85 19.38 7.95 19.20 7.22C19.03 6.50 18.45 5.93 17.53 5.50C16.63 5.10 15.48 4.82 14.35 4.68C13.75 4.60 13.55 4.70 13.35 4.97C13.15 5.25 13.05 5.55 12.98 5.88C12.90 6.25 13.05 6.63 13.45 6.80C14.68 7.27 15.28 7.95 15.28 9.22L15.28 20.60C15.28 21.57 15.73 21.88 16.68 21.88C18.03 21.88 19.10 21 19.10 19.68L19.10 14.88C19.20 14.92 19.33 15.03 19.45 15.13C20 15.57 20.50 15.80 21.10 15.80C22.38 15.80 23 15.10 23 13.77C23 12.60 22.23 11.92 20.98 11.92C20.65 11.92 20.08 12.13 19.75 12.38C19.53 12.55 19.30 12.67 19.10 12.77ZM4.20 23.35C4.20 23.85 4.08 24.15 3.85 24.48C3.65 24.75 3.63 25.05 3.80 25.40C4 25.80 4.40 26.38 4.65 26.63C5.05 27.02 5.43 27.15 6.08 27.15L13.40 27.15C16.48 27.15 18.85 26.23 20.30 23.82C20.65 23.25 20.18 22.73 19.65 22.98C17.75 23.88 16.28 24.20 12.83 24.20L8.40 24.20L8.40 22.27C8.40 21.38 8.18 21 7.58 20.68C6.80 20.25 5.55 19.85 4.53 19.68C3.88 19.55 3.65 19.57 3.43 19.90C3.25 20.13 3.13 20.38 3.03 20.68C2.90 21.07 2.98 21.32 3.43 21.57C4 21.88 4.20 22.15 4.20 22.80ZM5.60 12.90C6.88 12.77 8.05 12.75 9.40 12.77L9.40 14.95C8.13 15.13 6.93 15.20 5.60 15.20Z"/></svg><svg x="49" y="55"><path fill="red" stroke="none" transform="scale(1, 1)" d="M4.03 14.92C3.58 14.95 3.18 14.88 2.85 14.75C2.38 14.57 2.18 14.55 1.93 14.75C1.68 14.95 1.48 15.20 1.35 15.50C1.20 15.88 1.20 16.07 1.50 16.40C2.15 17.15 2.15 19.70 1.50 20.25C1.10 20.60 1.10 20.90 1.30 21.35C1.53 21.88 2 22.60 2.38 22.98C2.78 23.38 3.18 23.57 3.95 23.57L7.08 23.57C10.13 23.57 12.85 22.57 14.53 20.60C14.73 20.38 14.75 20.13 14.68 19.93L14.98 19.80C15.55 19.55 16.23 19.35 16.93 19.27L16.93 25.88C16.93 26.85 17.38 27.15 18.32 27.15C19.68 27.15 20.75 26.27 20.75 24.95L20.75 10.15C20.75 9.38 21.03 8.47 20.85 7.75C20.68 7.02 20.10 6.45 19.18 6.02C18.28 5.63 17.13 5.35 16 5.20C15.40 5.13 15.20 5.22 15 5.50C14.80 5.77 14.70 6.07 14.63 6.40C14.55 6.77 14.70 7.15 15.10 7.32C16.32 7.80 16.93 8.47 16.93 9.75L16.93 11.15C16.30 11.30 15.90 11.35 15.30 11.35C14.63 11.35 13.65 11.30 12.88 11.10L12.80 11.10C12.85 10.75 12.85 10.40 12.88 10.10C12.90 9.65 12.78 9.38 12.43 9.13C11.75 8.65 11.28 8.40 10.45 8.02C9.53 7.60 8.97 7.70 7.98 8.25C7.13 8.72 6.65 8.92 5.08 8.97C4.23 9 3.48 8.92 2.70 8.60C2.18 8.38 1.93 8.40 1.70 8.63C1.38 8.95 1.20 9.27 1.07 9.52C0.90 9.88 0.95 10.13 1.23 10.45C1.93 11.27 2.63 11.70 3.55 12C4.40 12.27 5.05 12.17 5.90 11.65C6.55 11.25 6.93 11.10 7.88 11.05L8.72 11C8.78 12.27 8.72 13.82 8.58 14.72ZM13.95 14.42C14.30 14.55 14.50 14.55 14.98 14.32C15.55 14.07 16.23 13.88 16.93 13.80L16.93 16.63C16.30 16.77 15.90 16.82 15.30 16.82C14.63 16.82 13.65 16.77 12.88 16.57C12.63 16.52 12.45 16.60 12.35 16.82C12.13 17.32 12.05 17.80 12.05 18.27C12.05 18.52 12.18 18.77 12.40 19C12.83 19.40 13.20 19.65 13.63 19.82C11.78 20.55 10.20 20.75 7.95 20.75L5.85 20.75C5.75 19.63 5.78 18.43 5.83 17.32L7.15 17.23C8.25 17.15 8.72 17.23 9.95 17.43C10.70 17.55 11.18 17.40 11.58 16.65C11.93 16.02 12.23 14.85 12.45 13.60C12.95 14.02 13.48 14.28 13.95 14.42Z"/></svg></svg>